<svg xmlns="http://www.w3.org/2000/svg" version="1.0" width="300mm" height="200mm" viewBox="0 0 300 200"><path fill="none" stroke="black" stroke-width="0.1" d="M0,20 C4,19.81 9.11,21.48 7.37,17.48 C5.64,13.48 13.64,13.48 11.37,17.48 C9.11,21.48 16,20.39 20,20 C24,19.61 30.1,17.83 27.63,21.83 C25.16,25.83 33.16,25.83 31.63,21.83 C30.1,17.83 36,20.65 40,20 C44,19.35 50.54,22.71 48.13,18.71 C45.73,14.71 53.73,14.71 52.13,18.71 C50.54,22.71 56,20.68 60,20 C64,19.32 70.42,21.65 68.53,17.65 C66.65,13.65 74.65,13.65 72.53,17.65 C70.42,21.65 76,19.42 80,20 C84,20.58 89.68,18.19 87.88,22.19 C86.07,26.19 94.07,26.19 91.88,22.19 C89.68,18.19 96,19.52 100,20 C104,20.48 110.3,17.64 108.21,21.64 C106.11,25.64 114.11,25.64 112.21,21.64 C110.3,17.64 116,19.38 120,20 C124,20.62 129.81,21.73 127.43,17.73 C125.06,13.73 133.06,13.73 131.43,17.73 C129.81,21.73 136,19.66 140,20 C144,20.34 151.47,22.28 148.68,18.28 C145.9,14.28 153.9,14.28 152.68,18.28 C151.47,22.28 156,19.85 160,20 C164,20.15 170.09,18.47 168.02,22.47 C165.95,26.47 173.95,26.47 172.02,22.47 C170.09,18.47 176,19.74 180,20 C184,20.26 189.38,21.2 187.24,17.2 C185.1,13.2 193.1,13.2 191.24,17.2 C189.38,21.2 196,19.47 200,20 C204,20.53 209.16,17.28 207.83,21.28 C206.49,25.28 214.49,25.28 211.83,21.28 C209.16,17.28 216,20.6 220,20 C224,19.4 229.74,21.47 227.64,17.47 C225.53,13.47 233.53,13.47 231.64,17.47 C229.74,21.47 236,19.28 240,20 C244,20.72 250.09,22.65 248.01,18.65 C245.94,14.65 253.94,14.65 252.01,18.65 C250.09,22.65 256,20.79 260,20 C264,19.21 269.5,21.24 267.49,17.24 C265.49,13.24 273.49,13.24 271.49,17.24 C269.5,21.24 276,19.89 280,20 C284,20.11 289.11,17.55 287.76,21.55 C286.41,25.55 294.41,25.55 291.76,21.55 C289.11,17.55 296,20.48 300,20 M0,40 C4,40.08 10.86,41.25 8.22,37.25 C5.59,33.25 13.59,33.25 12.22,37.25 C10.86,41.25 16,39.25 20,40 C24,40.75 31.12,41.51 28.48,37.51 C25.85,33.51 33.85,33.51 32.48,37.51 C31.12,41.51 36,40.44 40,40 C44,39.56 50.44,37.49 47.73,41.49 C45.03,45.49 53.03,45.49 51.73,41.49 C50.44,37.49 56,39.87 60,40 C64,40.13 70.37,41.81 67.84,37.81 C65.31,33.81 73.31,33.81 71.84,37.81 C70.37,41.81 76,39.99 80,40 C84,40.01 89.3,42.52 87.22,38.52 C85.15,34.52 93.15,34.52 91.22,38.52 C89.3,42.52 96,39.23 100,40 C104,40.77 111.35,41.77 108.7,37.77 C106.06,33.77 114.06,33.77 112.7,37.77 C111.35,41.77 116,39.7 120,40 C124,40.3 129.88,37.95 128.49,41.95 C127.1,45.95 135.1,45.95 132.49,41.95 C129.88,37.95 136,40.12 140,40 C144,39.88 149.33,37.98 147.32,41.98 C145.31,45.98 153.31,45.98 151.32,41.98 C149.33,37.98 156,39.47 160,40 C164,40.53 168.87,38.6 167.61,42.6 C166.35,46.6 174.35,46.6 171.61,42.6 C168.87,38.6 176,40.59 180,40 C184,39.41 190.61,41.95 188.22,37.95 C185.84,33.95 193.84,33.95 192.22,37.95 C190.61,41.95 196,39.94 200,40 C204,40.06 209.57,38.75 207.71,42.75 C205.85,46.75 213.85,46.75 211.71,42.75 C209.57,38.75 216,39.52 220,40 C224,40.48 229.68,42.44 227.82,38.44 C225.95,34.44 233.95,34.44 231.82,38.44 C229.68,42.44 236,39.73 240,40 C244,40.27 251.09,41.97 248.72,37.97 C246.35,33.97 254.35,33.97 252.72,37.97 C251.09,41.97 256,39.77 260,40 C264,40.23 269.18,38.77 267.69,42.77 C266.21,46.77 274.21,46.77 271.69,42.77 C269.18,38.77 276,40.52 280,40 C284,39.48 290.18,41.22 288.7,37.22 C287.22,33.22 295.22,33.22 292.7,37.22 C290.18,41.22 296,39.43 300,40 M0,60 C4,60.62 9.47,62.76 7.9,58.76 C6.34,54.76 14.34,54.76 11.9,58.76 C9.47,62.76 16,59.95 20,60 C24,60.05 30.77,62.34 28.36,58.34 C25.94,54.34 33.94,54.34 32.36,58.34 C30.77,62.34 36,59.9 40,60 C44,60.1 50.83,58.7 48.6,62.7 C46.38,66.7 54.38,66.7 52.6,62.7 C50.83,58.7 56,60.51 60,60 C64,59.49 69.78,58.49 68.11,62.49 C66.44,66.49 74.44,66.49 72.11,62.49 C69.78,58.49 76,59.96 80,60 C84,60.04 89.8,58.75 87.73,62.75 C85.66,66.75 93.66,66.75 91.73,62.75 C89.8,58.75 96,60.67 100,60 C104,59.33 110.92,62.38 108.71,58.38 C106.49,54.38 114.49,54.38 112.71,58.38 C110.92,62.38 116,60.24 120,60 C124,59.76 129.69,58.63 127.44,62.63 C125.2,66.63 133.2,66.63 131.44,62.63 C129.69,58.63 136,60.54 140,60 C144,59.46 150.29,62.42 148.31,58.42 C146.32,54.42 154.32,54.42 152.31,58.42 C150.29,62.42 156,60.4 160,60 C164,59.6 169.44,61.99 167.83,57.99 C166.21,53.99 174.21,53.99 171.83,57.99 C169.44,61.99 176,59.37 180,60 C184,60.63 190.09,58.62 187.54,62.62 C184.99,66.62 192.99,66.62 191.54,62.62 C190.09,58.62 196,60.23 200,60 C204,59.77 210.74,62.59 208.45,58.59 C206.16,54.59 214.16,54.59 212.45,58.59 C210.74,62.59 216,60.16 220,60 C224,59.84 230.04,57.57 228.4,61.57 C226.76,65.57 234.76,65.57 232.4,61.57 C230.04,57.57 236,59.5 240,60 C244,60.5 249.36,61.82 247.41,57.82 C245.46,53.82 253.46,53.82 251.41,57.82 C249.36,61.82 256,59.95 260,60 C264,60.05 270.23,57.87 268.1,61.87 C265.96,65.87 273.96,65.87 272.1,61.87 C270.23,57.87 276,59.54 280,60 C284,60.46 289.91,58.35 288.21,62.35 C286.5,66.35 294.5,66.35 292.21,62.35 C289.91,58.35 296,59.61 300,60 M0,80 C4,79.64 11.42,82.73 8.63,78.73 C5.85,74.73 13.85,74.73 12.63,78.73 C11.42,82.73 16,79.3 20,80 C24,80.7 30.41,81.73 28.12,77.73 C25.83,73.73 33.83,73.73 32.12,77.73 C30.41,81.73 36,79.71 40,80 C44,80.29 49.61,78.68 47.51,82.68 C45.42,86.68 53.42,86.68 51.51,82.68 C49.61,78.68 56,79.76 60,80 C64,80.24 70.64,81.77 68.74,77.77 C66.83,73.77 74.83,73.77 72.74,77.77 C70.64,81.77 76,80.75 80,80 C84,79.25 90.63,82.43 88.23,78.43 C85.82,74.43 93.82,74.43 92.23,78.43 C90.63,82.43 96,80.45 100,80 C104,79.55 110.12,82.02 107.82,78.02 C105.52,74.02 113.52,74.02 111.82,78.02 C110.12,82.02 116,80.14 120,80 C124,79.86 130.36,82.35 128.8,78.35 C127.24,74.35 135.24,74.35 132.8,78.35 C130.36,82.35 136,79.71 140,80 C144,80.29 149.71,82.48 147.55,78.48 C145.38,74.48 153.38,74.48 151.55,78.48 C149.71,82.48 156,80.14 160,80 C164,79.86 170.39,81.96 167.63,77.96 C164.87,73.96 172.87,73.96 171.63,77.96 C170.39,81.96 176,80.54 180,80 C184,79.46 189.38,78.31 187.3,82.31 C185.23,86.31 193.23,86.31 191.3,82.31 C189.38,78.31 196,80.15 200,80 C204,79.85 209.3,78.7 207.51,82.7 C205.72,86.7 213.72,86.7 211.51,82.7 C209.3,78.7 216,80.38 220,80 C224,79.62 230.85,81.54 228.08,77.54 C225.31,73.54 233.31,73.54 232.08,77.54 C230.85,81.54 236,80.43 240,80 C244,79.57 250.93,78.74 248.41,82.74 C245.9,86.74 253.9,86.74 252.41,82.74 C250.93,78.74 256,80.46 260,80 C264,79.54 268.83,81.6 267.46,77.6 C266.09,73.6 274.09,73.6 271.46,77.6 C268.83,81.6 276,80.46 280,80 C284,79.54 290.72,77.23 288.71,81.23 C286.7,85.23 294.7,85.23 292.71,81.23 C290.72,77.23 296,80.65 300,80 M0,100 C4,100.7 9.98,98.57 7.47,102.57 C4.96,106.57 12.96,106.57 11.47,102.57 C9.98,98.57 16,100.31 20,100 C24,99.69 31.18,98.49 28.53,102.49 C25.88,106.49 33.88,106.49 32.53,102.49 C31.18,98.49 36,99.62 40,100 C44,100.38 50.21,101.35 47.53,97.35 C44.85,93.35 52.85,93.35 51.53,97.35 C50.21,101.35 56,100.01 60,100 C64,99.99 68.95,101.42 67.56,97.42 C66.16,93.42 74.16,93.42 71.56,97.42 C68.95,101.42 76,99.89 80,100 C84,100.11 90.76,98.57 88.25,102.57 C85.74,106.57 93.74,106.57 92.25,102.57 C90.76,98.57 96,100.41 100,100 C104,99.59 110.16,98.42 107.49,102.42 C104.82,106.42 112.82,106.42 111.49,102.42 C110.16,98.42 116,100.68 120,100 C124,99.32 129.86,101.84 128.53,97.84 C127.2,93.84 135.2,93.84 132.53,97.84 C129.86,101.84 136,99.43 140,100 C144,100.57 150.18,98.12 148.49,102.12 C146.8,106.12 154.8,106.12 152.49,102.12 C150.18,98.12 156,99.26 160,100 C164,100.74 170.8,98.19 168.21,102.19 C165.62,106.19 173.62,106.19 172.21,102.19 C170.8,98.19 176,100.73 180,100 C184,99.27 189.93,102.1 187.87,98.1 C185.81,94.1 193.81,94.1 191.87,98.1 C189.93,102.1 196,99.87 200,100 C204,100.13 210.39,101.96 208.23,97.96 C206.06,93.96 214.06,93.96 212.23,97.96 C210.39,101.96 216,99.34 220,100 C224,100.66 230.59,102.68 228.44,98.68 C226.29,94.68 234.29,94.68 232.44,98.68 C230.59,102.68 236,99.84 240,100 C244,100.16 249.12,98.37 247.87,102.37 C246.61,106.37 254.61,106.37 251.87,102.37 C249.12,98.37 256,99.3 260,100 C264,100.7 270.16,97.69 267.95,101.69 C265.73,105.69 273.73,105.69 271.95,101.69 C270.16,97.69 276,100.38 280,100 C284,99.62 290.55,98.38 288.58,102.38 C286.62,106.38 294.62,106.38 292.58,102.38 C290.55,98.38 296,100 300,100 M0,120 C4,120.33 8.96,121.55 7.69,117.55 C6.43,113.55 14.43,113.55 11.69,117.55 C8.96,121.55 16,120.13 20,120 C24,119.87 29.76,121.39 28.23,117.39 C26.7,113.39 34.7,113.39 32.23,117.39 C29.76,121.39 36,120.65 40,120 C44,119.35 49.91,118.65 48.39,122.65 C46.88,126.65 54.88,126.65 52.39,122.65 C49.91,118.65 56,120.35 60,120 C64,119.65 69.4,117.7 67.27,121.7 C65.13,125.7 73.13,125.7 71.27,121.7 C69.4,117.7 76,119.58 80,120 C84,120.42 89.57,121.29 88.04,117.29 C86.51,113.29 94.51,113.29 92.04,117.29 C89.57,121.29 96,120.22 100,120 C104,119.78 108.57,117.5 107.21,121.5 C105.85,125.5 113.85,125.5 111.21,121.5 C108.57,117.5 116,119.2 120,120 C124,120.8 130.29,122.66 127.85,118.66 C125.41,114.66 133.41,114.66 131.85,118.66 C130.29,122.66 136,120.63 140,120 C144,119.37 151.16,117.58 148.42,121.58 C145.68,125.58 153.68,125.58 152.42,121.58 C151.16,117.58 156,120.5 160,120 C164,119.5 171.39,121.26 168.68,117.26 C165.97,113.26 173.97,113.26 172.68,117.26 C171.39,121.26 176,119.37 180,120 C184,120.63 189.73,118.36 187.45,122.36 C185.16,126.36 193.16,126.36 191.45,122.36 C189.73,118.36 196,119.78 200,120 C204,120.22 211.23,118.41 208.64,122.41 C206.04,126.41 214.04,126.41 212.64,122.41 C211.23,118.41 216,120.36 220,120 C224,119.64 228.7,118.49 227.36,122.49 C226.03,126.49 234.03,126.49 231.36,122.49 C228.7,118.49 236,119.29 240,120 C244,120.71 250.26,122.36 248.54,118.36 C246.82,114.36 254.82,114.36 252.54,118.36 C250.26,122.36 256,119.87 260,120 C264,120.13 270.94,117.56 268.68,121.56 C266.41,125.56 274.41,125.56 272.68,121.56 C270.94,117.56 276,119.78 280,120 C284,120.22 290.15,121.46 288.29,117.46 C286.43,113.46 294.43,113.46 292.29,117.46 C290.15,121.46 296,120.5 300,120 M0,140 C4,139.63 9.94,141.61 7.92,137.61 C5.9,133.61 13.9,133.61 11.92,137.61 C9.94,141.61 16,140.79 20,140 C24,139.21 30.03,141.83 28.37,137.83 C26.72,133.83 34.72,133.83 32.37,137.83 C30.03,141.83 36,140.52 40,140 C44,139.48 49.24,138.27 47.76,142.27 C46.28,146.27 54.28,146.27 51.76,142.27 C49.24,138.27 56,139.31 60,140 C64,140.69 69.7,137.67 68.39,141.67 C67.08,145.67 75.08,145.67 72.39,141.67 C69.7,137.67 76,139.46 80,140 C84,140.54 89.76,141.23 88.47,137.23 C87.18,133.23 95.18,133.23 92.47,137.23 C89.76,141.23 96,140.11 100,140 C104,139.89 110.06,142.71 107.33,138.71 C104.61,134.71 112.61,134.71 111.33,138.71 C110.06,142.71 116,139.99 120,140 C124,140.01 129.98,137.88 127.69,141.88 C125.41,145.88 133.41,145.88 131.69,141.88 C129.98,137.88 136,140.13 140,140 C144,139.87 150.49,142 148.24,138 C145.98,134 153.98,134 152.24,138 C150.49,142 156,139.26 160,140 C164,140.74 170.5,137.81 168.77,141.81 C167.03,145.81 175.03,145.81 172.77,141.81 C170.5,137.81 176,139.82 180,140 C184,140.18 190.06,142.23 188.21,138.23 C186.37,134.23 194.37,134.23 192.21,138.23 C190.06,142.23 196,140.8 200,140 C204,139.2 210.98,142.21 208.37,138.21 C205.76,134.21 213.76,134.21 212.37,138.21 C210.98,142.21 216,139.85 220,140 C224,140.15 229.99,138.74 228.08,142.74 C226.17,146.74 234.17,146.74 232.08,142.74 C229.99,138.74 236,139.44 240,140 C244,140.56 248.68,142.65 247.33,138.65 C245.98,134.65 253.98,134.65 251.33,138.65 C248.68,142.65 256,140.66 260,140 C264,139.34 268.5,141.93 267.23,137.93 C265.95,133.93 273.95,133.93 271.23,137.93 C268.5,141.93 276,139.87 280,140 C284,140.13 289.61,142 287.33,138 C285.06,134 293.06,134 291.33,138 C289.61,142 296,140.74 300,140 M0,160 C4,159.76 8.77,161.86 7.45,157.86 C6.13,153.86 14.13,153.86 11.45,157.86 C8.77,161.86 16,159.81 20,160 C24,160.19 30,161.53 28.03,157.53 C26.05,153.53 34.05,153.53 32.03,157.53 C30,161.53 36,159.95 40,160 C44,160.05 49.55,158.29 47.33,162.29 C45.11,166.29 53.11,166.29 51.33,162.29 C49.55,158.29 56,159.67 60,160 C64,160.33 70.01,161.64 67.67,157.64 C65.32,153.64 73.32,153.64 71.67,157.64 C70.01,161.64 76,159.25 80,160 C84,160.75 89.71,162.7 87.32,158.7 C84.93,154.7 92.93,154.7 91.32,158.7 C89.71,162.7 96,160.76 100,160 C104,159.24 110.53,158.58 108.63,162.58 C106.73,166.58 114.73,166.58 112.63,162.58 C110.53,158.58 116,159.48 120,160 C124,160.52 130.59,162.53 128.2,158.53 C125.82,154.53 133.82,154.53 132.2,158.53 C130.59,162.53 136,159.65 140,160 C144,160.35 149.76,161.64 147.8,157.64 C145.84,153.64 153.84,153.64 151.8,157.64 C149.76,161.64 156,160.52 160,160 C164,159.48 170.19,158.65 168.4,162.65 C166.61,166.65 174.61,166.65 172.4,162.65 C170.19,158.65 176,160.25 180,160 C184,159.75 189.14,161.52 187.33,157.52 C185.52,153.52 193.52,153.52 191.33,157.52 C189.14,161.52 196,159.48 200,160 C204,160.52 209.3,157.39 207.32,161.39 C205.33,165.39 213.33,165.39 211.32,161.39 C209.3,157.39 216,159.5 220,160 C224,160.5 230.08,161.66 228.36,157.66 C226.63,153.66 234.63,153.66 232.36,157.66 C230.08,161.66 236,160.78 240,160 C244,159.22 250.82,157.68 248.18,161.68 C245.55,165.68 253.55,165.68 252.18,161.68 C250.82,157.68 256,160.26 260,160 C264,159.74 268.83,158.56 267.49,162.56 C266.16,166.56 274.16,166.56 271.49,162.56 C268.83,158.56 276,160.22 280,160 C284,159.78 289.33,162.05 287.39,158.05 C285.46,154.05 293.46,154.05 291.39,158.05 C289.33,162.05 296,160.37 300,160 M0,180 C4,179.85 10.44,178.66 8.72,182.66 C6.99,186.66 14.99,186.66 12.72,182.66 C10.44,178.66 16,179.34 20,180 C24,180.66 31.11,177.87 28.39,181.87 C25.67,185.87 33.67,185.87 32.39,181.87 C31.11,177.87 36,179.98 40,180 C44,180.02 49.53,177.69 47.63,181.69 C45.73,185.69 53.73,185.69 51.63,181.69 C49.53,177.69 56,179.56 60,180 C64,180.44 69.47,182.49 68.1,178.49 C66.72,174.49 74.72,174.49 72.1,178.49 C69.47,182.49 76,180.67 80,180 C84,179.33 90.36,181.71 88.59,177.71 C86.82,173.71 94.82,173.71 92.59,177.71 C90.36,181.71 96,180.41 100,180 C104,179.59 109.41,178.19 107.67,182.19 C105.94,186.19 113.94,186.19 111.67,182.19 C109.41,178.19 116,180.06 120,180 C124,179.94 128.91,177.3 127.53,181.3 C126.14,185.3 134.14,185.3 131.53,181.3 C128.91,177.3 136,180.66 140,180 C144,179.34 150.55,177.87 148.59,181.87 C146.64,185.87 154.64,185.87 152.59,181.87 C150.55,177.87 156,179.44 160,180 C164,180.56 168.88,181.68 167.23,177.68 C165.58,173.68 173.58,173.68 171.23,177.68 C168.88,181.68 176,180.2 180,180 C184,179.8 191.42,182.04 188.68,178.04 C185.94,174.04 193.94,174.04 192.68,178.04 C191.42,182.04 196,179.21 200,180 C204,180.79 211.26,182.37 208.68,178.37 C206.11,174.37 214.11,174.37 212.68,178.37 C211.26,182.37 216,179.28 220,180 C224,180.72 229.16,177.32 227.56,181.32 C225.96,185.32 233.96,185.32 231.56,181.32 C229.16,177.32 236,180.53 240,180 C244,179.47 249.95,182.18 247.65,178.18 C245.34,174.18 253.34,174.18 251.65,178.18 C249.95,182.18 256,180.78 260,180 C264,179.22 270.38,182.7 268.25,178.7 C266.12,174.7 274.12,174.7 272.25,178.7 C270.38,182.7 276,179.21 280,180 C284,180.79 289.76,177.31 288.27,181.31 C286.79,185.31 294.79,185.31 292.27,181.31 C289.76,177.31 296,179.54 300,180 M20,0 C20.14,4 18.03,9.69 22.03,8.22 C26.03,6.74 26.03,14.74 22.03,12.22 C18.03,9.69 20.48,16 20,20 C19.52,24 17.56,29.92 21.56,27.87 C25.56,25.81 25.56,33.81 21.56,31.87 C17.56,29.92 19.59,36 20,40 C20.41,44 22.18,49.48 18.18,47.87 C14.18,46.25 14.18,54.25 18.18,51.87 C22.18,49.48 20.58,56 20,60 C19.42,64 22.06,69.44 18.06,67.59 C14.06,65.75 14.06,73.75 18.06,71.59 C22.06,69.44 19.94,76 20,80 C20.06,84 17.22,89.01 21.22,87.42 C25.22,85.83 25.22,93.83 21.22,91.42 C17.22,89.01 19.92,96 20,100 C20.08,104 22.48,110.19 18.48,108.01 C14.48,105.84 14.48,113.84 18.48,112.01 C22.48,110.19 19.22,116 20,120 C20.78,124 21.21,129.97 17.21,128.16 C13.21,126.35 13.21,134.35 17.21,132.16 C21.21,129.97 19.46,136 20,140 C20.54,144 17.9,149.27 21.9,147.41 C25.9,145.56 25.9,153.56 21.9,151.41 C17.9,149.27 19.24,156 20,160 C20.76,164 21.2,169.03 17.2,167.68 C13.2,166.34 13.2,174.34 17.2,171.68 C21.2,169.03 20.71,176 20,180 C19.29,184 21.63,190.32 17.63,188.48 C13.63,186.65 13.63,194.65 17.63,192.48 C21.63,190.32 20.27,196 20,200 M40,0 C39.96,4 42.78,10.17 38.78,7.67 C34.78,5.16 34.78,13.16 38.78,11.67 C42.78,10.17 39.67,16 40,20 C40.33,24 42.5,30.18 38.5,28.22 C34.5,26.26 34.5,34.26 38.5,32.22 C42.5,30.18 39.37,36 40,40 C40.63,44 38.35,50.37 42.35,48.74 C46.35,47.11 46.35,55.11 42.35,52.74 C38.35,50.37 39.96,56 40,60 C40.04,64 38.38,71.3 42.38,68.6 C46.38,65.91 46.38,73.91 42.38,72.6 C38.38,71.3 39.63,76 40,80 C40.37,84 37.43,88.45 41.43,87.21 C45.43,85.97 45.43,93.97 41.43,91.21 C37.43,88.45 39.9,96 40,100 C40.1,104 42.05,109.16 38.05,107.83 C34.05,106.49 34.05,114.49 38.05,111.83 C42.05,109.16 39.2,116 40,120 C40.8,124 37.92,130.14 41.92,128.64 C45.92,127.14 45.92,135.14 41.92,132.64 C37.92,130.14 40.77,136 40,140 C39.23,144 38.23,151.2 42.23,148.6 C46.23,146 46.23,154 42.23,152.6 C38.23,151.2 40.34,156 40,160 C39.66,164 42.04,170.13 38.04,168.66 C34.04,167.18 34.04,175.18 38.04,172.66 C42.04,170.13 39.57,176 40,180 C40.43,184 42.68,189.69 38.68,188.02 C34.68,186.35 34.68,194.35 38.68,192.02 C42.68,189.69 39.86,196 40,200 M60,0 C60.79,4 58.07,10.56 62.07,8.45 C66.07,6.34 66.07,14.34 62.07,12.45 C58.07,10.56 60.47,16 60,20 C59.53,24 61.9,28.67 57.9,27.44 C53.9,26.21 53.9,34.21 57.9,31.44 C61.9,28.67 59.23,36 60,40 C60.77,44 62.58,50.43 58.58,47.76 C54.58,45.09 54.58,53.09 58.58,51.76 C62.58,50.43 60.44,56 60,60 C59.56,64 62.12,69.82 58.12,67.53 C54.12,65.24 54.12,73.24 58.12,71.53 C62.12,69.82 59.45,76 60,80 C60.55,84 62.72,90.3 58.72,87.96 C54.72,85.63 54.72,93.63 58.72,91.96 C62.72,90.3 60.35,96 60,100 C59.65,104 62.42,108.86 58.42,107.39 C54.42,105.93 54.42,113.93 58.42,111.39 C62.42,108.86 60.29,116 60,120 C59.71,124 61.67,130.26 57.67,128.06 C53.67,125.86 53.67,133.86 57.67,132.06 C61.67,130.26 59.83,136 60,140 C60.17,144 57.65,149.13 61.65,147.29 C65.65,145.46 65.65,153.46 61.65,151.29 C57.65,149.13 59.71,156 60,160 C60.29,164 57.77,169.05 61.77,167.21 C65.77,165.38 65.77,173.38 61.77,171.21 C57.77,169.05 60.13,176 60,180 C59.87,184 58.35,190.07 62.35,188.24 C66.35,186.42 66.35,194.42 62.35,192.24 C58.35,190.07 60.32,196 60,200 M80,0 C80.29,4 78.56,8.73 82.56,7.42 C86.56,6.11 86.56,14.11 82.56,11.42 C78.56,8.73 79.58,16 80,20 C80.42,24 81.33,29.74 77.33,28.26 C73.33,26.78 73.33,34.78 77.33,32.26 C81.33,29.74 80.2,36 80,40 C79.8,44 78.27,49.31 82.27,47.55 C86.27,45.79 86.27,53.79 82.27,51.55 C78.27,49.31 80.27,56 80,60 C79.73,64 77.45,70.44 81.45,68.18 C85.45,65.93 85.45,73.93 81.45,72.18 C77.45,70.44 80.15,76 80,80 C79.85,84 77.61,90.73 81.61,88.5 C85.61,86.28 85.61,94.28 81.61,92.5 C77.61,90.73 79.29,96 80,100 C80.71,104 78.31,110.11 82.31,108.64 C86.31,107.17 86.31,115.17 82.31,112.64 C78.31,110.11 79.79,116 80,120 C80.21,124 82.51,129.95 78.51,127.55 C74.51,125.14 74.51,133.14 78.51,131.55 C82.51,129.95 79.6,136 80,140 C80.4,144 82.76,149.94 78.76,148.34 C74.76,146.73 74.76,154.73 78.76,152.34 C82.76,149.94 79.38,156 80,160 C80.62,164 82.58,171.34 78.58,168.57 C74.58,165.79 74.58,173.79 78.58,172.57 C82.58,171.34 79.45,176 80,180 C80.55,184 77.44,189.06 81.44,187.55 C85.44,186.04 85.44,194.04 81.44,191.55 C77.44,189.06 80.31,196 80,200 M100,0 C99.53,4 97.96,10.55 101.96,8.43 C105.96,6.3 105.96,14.3 101.96,12.43 C97.96,10.55 99.44,16 100,20 C100.56,24 97.81,31.51 101.81,28.76 C105.81,26.01 105.81,34.01 101.81,32.76 C97.81,31.51 99.65,36 100,40 C100.35,44 97.74,50.19 101.74,48.78 C105.74,47.36 105.74,55.36 101.74,52.78 C97.74,50.19 99.97,56 100,60 C100.03,64 98.15,70.57 102.15,67.91 C106.15,65.25 106.15,73.25 102.15,71.91 C98.15,70.57 100,76 100,80 C100,84 101.53,90 97.53,87.4 C93.53,84.8 93.53,92.8 97.53,91.4 C101.53,90 99.54,96 100,100 C100.46,104 101.43,109.15 97.43,107.49 C93.43,105.83 93.43,113.83 97.43,111.49 C101.43,109.15 99.68,116 100,120 C100.32,124 98.68,129.75 102.68,127.84 C106.68,125.93 106.68,133.93 102.68,131.84 C98.68,129.75 99.64,136 100,140 C100.36,144 98.21,148.73 102.21,147.33 C106.21,145.93 106.21,153.93 102.21,151.33 C98.21,148.73 99.94,156 100,160 C100.06,164 98.09,170.45 102.09,168.47 C106.09,166.49 106.09,174.49 102.09,172.47 C98.09,170.45 100.16,176 100,180 C99.84,184 97.65,190.39 101.65,188 C105.65,185.6 105.65,193.6 101.65,192 C97.65,190.39 99.56,196 100,200 M120,0 C119.83,4 122.61,10.27 118.61,7.79 C114.61,5.31 114.61,13.31 118.61,11.79 C122.61,10.27 119.47,16 120,20 C120.53,24 122.32,30.3 118.32,27.89 C114.32,25.47 114.32,33.47 118.32,31.89 C122.32,30.3 120.22,36 120,40 C119.78,44 121.73,50.79 117.73,48.58 C113.73,46.38 113.73,54.38 117.73,52.58 C121.73,50.79 120.71,56 120,60 C119.29,64 118.45,70.36 122.45,68.19 C126.45,66.02 126.45,74.02 122.45,72.19 C118.45,70.36 120.19,76 120,80 C119.81,84 121.26,90.26 117.26,87.99 C113.26,85.72 113.26,93.72 117.26,91.99 C121.26,90.26 119.33,96 120,100 C120.67,104 121.33,110.09 117.33,108.32 C113.33,106.55 113.33,114.55 117.33,112.32 C121.33,110.09 120.45,116 120,120 C119.55,124 117.6,130.21 121.6,127.74 C125.6,125.26 125.6,133.26 121.6,131.74 C117.6,130.21 120.33,136 120,140 C119.67,144 118.04,149.55 122.04,147.83 C126.04,146.11 126.04,154.11 122.04,151.83 C118.04,149.55 119.56,156 120,160 C120.44,164 117.53,171.14 121.53,168.52 C125.53,165.89 125.53,173.89 121.53,172.52 C117.53,171.14 120.76,176 120,180 C119.24,184 122.11,190.15 118.11,188.49 C114.11,186.84 114.11,194.84 118.11,192.49 C122.11,190.15 119.7,196 120,200 M140,0 C140.44,4 138.63,8.81 142.63,7.23 C146.63,5.65 146.63,13.65 142.63,11.23 C138.63,8.81 140.23,16 140,20 C139.77,24 138.33,29.93 142.33,27.62 C146.33,25.31 146.33,33.31 142.33,31.62 C138.33,29.93 139.92,36 140,40 C140.08,44 138.34,49.05 142.34,47.24 C146.34,45.43 146.34,53.43 142.34,51.24 C138.34,49.05 139.56,56 140,60 C140.44,64 137.28,70.91 141.28,68.77 C145.28,66.62 145.28,74.62 141.28,72.77 C137.28,70.91 139.82,76 140,80 C140.18,84 137.28,89.88 141.28,87.89 C145.28,85.9 145.28,93.9 141.28,91.89 C137.28,89.88 139.31,96 140,100 C140.69,104 137.74,110.62 141.74,107.96 C145.74,105.29 145.74,113.29 141.74,111.96 C137.74,110.62 140.46,116 140,120 C139.54,124 142.09,130.25 138.09,127.99 C134.09,125.73 134.09,133.73 138.09,131.99 C142.09,130.25 139.95,136 140,140 C140.05,144 138.09,149.93 142.09,148.42 C146.09,146.92 146.09,154.92 142.09,152.42 C138.09,149.93 140.22,156 140,160 C139.78,164 142.75,169.74 138.75,167.59 C134.75,165.44 134.75,173.44 138.75,171.59 C142.75,169.74 139.22,176 140,180 C140.78,184 138.14,190.04 142.14,188.34 C146.14,186.64 146.14,194.64 142.14,192.34 C138.14,190.04 140.08,196 140,200 M160,0 C160.69,4 158.4,9.16 162.4,7.68 C166.4,6.2 166.4,14.2 162.4,11.68 C158.4,9.16 160.75,16 160,20 C159.25,24 158.31,30.12 162.31,28.66 C166.31,27.19 166.31,35.19 162.31,32.66 C158.31,30.12 159.45,36 160,40 C160.55,44 158.41,51.17 162.41,48.63 C166.41,46.08 166.41,54.08 162.41,52.63 C158.41,51.17 159.22,56 160,60 C160.78,64 158.49,69.93 162.49,67.63 C166.49,65.33 166.49,73.33 162.49,71.63 C158.49,69.93 159.55,76 160,80 C160.45,84 157.63,90.6 161.63,88.47 C165.63,86.34 165.63,94.34 161.63,92.47 C157.63,90.6 159.57,96 160,100 C160.43,104 157.63,109.43 161.63,108.06 C165.63,106.69 165.63,114.69 161.63,112.06 C157.63,109.43 160.48,116 160,120 C159.52,124 158.01,129.29 162.01,127.71 C166.01,126.14 166.01,134.14 162.01,131.71 C158.01,129.29 160.04,136 160,140 C159.96,144 157.5,150.2 161.5,148.1 C165.5,145.99 165.5,153.99 161.5,152.1 C157.5,150.2 160.29,156 160,160 C159.71,164 162.36,171.18 158.36,168.77 C154.36,166.37 154.36,174.37 158.36,172.77 C162.36,171.18 160.43,176 160,180 C159.57,184 158.74,189.34 162.74,187.69 C166.74,186.05 166.74,194.05 162.74,191.69 C158.74,189.34 160.44,196 160,200 M180,0 C180.14,4 178.78,9.98 182.78,8.68 C186.78,7.38 186.78,15.38 182.78,12.68 C178.78,9.98 179.61,16 180,20 C180.39,24 182.64,31.47 178.64,28.78 C174.64,26.08 174.64,34.08 178.64,32.78 C182.64,31.47 180.33,36 180,40 C179.67,44 178.21,51.56 182.21,48.79 C186.21,46.03 186.21,54.03 182.21,52.79 C178.21,51.56 180.14,56 180,60 C179.86,64 182.75,69.62 178.75,67.98 C174.75,66.34 174.75,74.34 178.75,71.98 C182.75,69.62 179.29,76 180,80 C180.71,84 182.23,89.33 178.23,87.47 C174.23,85.62 174.23,93.62 178.23,91.47 C182.23,89.33 180.26,96 180,100 C179.74,104 181.71,110.21 177.71,107.63 C173.71,105.05 173.71,113.05 177.71,111.63 C181.71,110.21 179.97,116 180,120 C180.03,124 181.22,129.26 177.22,127.28 C173.22,125.31 173.22,133.31 177.22,131.28 C181.22,129.26 179.28,136 180,140 C180.72,144 181.89,149.99 177.89,148.56 C173.89,147.13 173.89,155.13 177.89,152.56 C181.89,149.99 180.43,156 180,160 C179.57,164 178.04,169.87 182.04,168.66 C186.04,167.45 186.04,175.45 182.04,172.66 C178.04,169.87 179.35,176 180,180 C180.65,184 181.65,190.51 177.65,187.94 C173.65,185.38 173.65,193.38 177.65,191.94 C181.65,190.51 179.54,196 180,200 M200,0 C199.57,4 202.15,10.4 198.15,8.08 C194.15,5.76 194.15,13.76 198.15,12.08 C202.15,10.4 200.79,16 200,20 C199.21,24 202.08,30.55 198.08,28.59 C194.08,26.64 194.08,34.64 198.08,32.59 C202.08,30.55 200.7,36 200,40 C199.3,44 198.15,51.09 202.15,48.51 C206.15,45.92 206.15,53.92 202.15,52.51 C198.15,51.09 199.81,56 200,60 C200.19,64 201.41,70.89 197.41,68.12 C193.41,65.35 193.41,73.35 197.41,72.12 C201.41,70.89 199.32,76 200,80 C200.68,84 201.66,91.08 197.66,88.57 C193.66,86.06 193.66,94.06 197.66,92.57 C201.66,91.08 199.78,96 200,100 C200.22,104 201.9,109.08 197.9,107.3 C193.9,105.53 193.9,113.53 197.9,111.3 C201.9,109.08 199.26,116 200,120 C200.74,124 198.35,129.58 202.35,128.18 C206.35,126.79 206.35,134.79 202.35,132.18 C198.35,129.58 199.99,136 200,140 C200.01,144 198.23,149.32 202.23,147.24 C206.23,145.15 206.23,153.15 202.23,151.24 C198.23,149.32 199.85,156 200,160 C200.15,164 202.06,169.68 198.06,168.1 C194.06,166.51 194.06,174.51 198.06,172.1 C202.06,169.68 200.64,176 200,180 C199.36,184 198.14,189.49 202.14,187.25 C206.14,185 206.14,193 202.14,191.25 C198.14,189.49 199.78,196 200,200 M220,0 C220,4 218.7,11.35 222.7,8.57 C226.7,5.78 226.7,13.78 222.7,12.57 C218.7,11.35 220.8,16 220,20 C219.2,24 217.74,29.83 221.74,27.71 C225.74,25.58 225.74,33.58 221.74,31.71 C217.74,29.83 219.98,36 220,40 C220.02,44 221.86,51.04 217.86,48.59 C213.86,46.14 213.86,54.14 217.86,52.59 C221.86,51.04 219.44,56 220,60 C220.56,64 217.41,70.56 221.41,68.65 C225.41,66.74 225.41,74.74 221.41,72.65 C217.41,70.56 219.51,76 220,80 C220.49,84 217.4,90.1 221.4,87.7 C225.4,85.31 225.4,93.31 221.4,91.7 C217.4,90.1 220.38,96 220,100 C219.62,104 218.62,110.29 222.62,108.42 C226.62,106.56 226.62,114.56 222.62,112.42 C218.62,110.29 219.83,116 220,120 C220.17,124 217.33,130.66 221.33,128.73 C225.33,126.8 225.33,134.8 221.33,132.73 C217.33,130.66 220.02,136 220,140 C219.98,144 217.77,150.3 221.77,147.88 C225.77,145.46 225.77,153.46 221.77,151.88 C217.77,150.3 219.38,156 220,160 C220.62,164 222.7,170.56 218.7,168.68 C214.7,166.8 214.7,174.8 218.7,172.68 C222.7,170.56 220.3,176 220,180 C219.7,184 222.14,190.19 218.14,188.74 C214.14,187.29 214.14,195.29 218.14,192.74 C222.14,190.19 219.35,196 220,200 M240,0 C240.78,4 241.98,9.52 237.98,7.38 C233.98,5.24 233.98,13.24 237.98,11.38 C241.98,9.52 239.29,16 240,20 C240.71,24 238.29,30.91 242.29,28.41 C246.29,25.91 246.29,33.91 242.29,32.41 C238.29,30.91 239.66,36 240,40 C240.34,44 238.74,49.9 242.74,47.44 C246.74,44.98 246.74,52.98 242.74,51.44 C238.74,49.9 239.56,56 240,60 C240.44,64 241.63,70.71 237.63,68.37 C233.63,66.02 233.63,74.02 237.63,72.37 C241.63,70.71 240.26,76 240,80 C239.74,84 241.33,91.19 237.33,88.5 C233.33,85.8 233.33,93.8 237.33,92.5 C241.33,91.19 240.28,96 240,100 C239.72,104 242.39,110.57 238.39,108.74 C234.39,106.91 234.39,114.91 238.39,112.74 C242.39,110.57 239.2,116 240,120 C240.8,124 238.26,129.34 242.26,128.08 C246.26,126.81 246.26,134.81 242.26,132.08 C238.26,129.34 239.99,136 240,140 C240.01,144 238.07,149.62 242.07,147.33 C246.07,145.04 246.07,153.04 242.07,151.33 C238.07,149.62 240.23,156 240,160 C239.77,164 237.4,169.84 241.4,168.39 C245.4,166.94 245.4,174.94 241.4,172.39 C237.4,169.84 240.44,176 240,180 C239.56,184 242.2,189.32 238.2,187.29 C234.2,185.25 234.2,193.25 238.2,191.29 C242.2,189.32 239.44,196 240,200 M260,0 C260.01,4 261.34,10.95 257.34,8.76 C253.34,6.57 253.34,14.57 257.34,12.76 C261.34,10.95 259.4,16 260,20 C260.6,24 262.29,29.3 258.29,27.56 C254.29,25.82 254.29,33.82 258.29,31.56 C262.29,29.3 260.61,36 260,40 C259.39,44 257.75,50.39 261.75,47.97 C265.75,45.55 265.75,53.55 261.75,51.97 C257.75,50.39 260.15,56 260,60 C259.85,64 257.58,69.22 261.58,67.74 C265.58,66.26 265.58,74.26 261.58,71.74 C257.58,69.22 260.53,76 260,80 C259.47,84 258.11,88.81 262.11,87.52 C266.11,86.23 266.11,94.23 262.11,91.52 C258.11,88.81 260.47,96 260,100 C259.53,104 262.04,110.05 258.04,108.16 C254.04,106.26 254.04,114.26 258.04,112.16 C262.04,110.05 260.04,116 260,120 C259.96,124 261.35,129 257.35,127.79 C253.35,126.58 253.35,134.58 257.35,131.79 C261.35,129 260.04,136 260,140 C259.96,144 262.16,150.88 258.16,148.3 C254.16,145.73 254.16,153.73 258.16,152.3 C262.16,150.88 260.5,156 260,160 C259.5,164 262.46,170.9 258.46,168.36 C254.46,165.82 254.46,173.82 258.46,172.36 C262.46,170.9 259.51,176 260,180 C260.49,184 261.32,191.13 257.32,188.47 C253.32,185.82 253.32,193.82 257.32,192.47 C261.32,191.13 260.67,196 260,200 M280,0 C279.21,4 278.19,8.76 282.19,7.33 C286.19,5.89 286.19,13.89 282.19,11.33 C278.19,8.76 280.01,16 280,20 C279.99,24 282.42,29.12 278.42,27.77 C274.42,26.43 274.42,34.43 278.42,31.77 C282.42,29.12 280.2,36 280,40 C279.8,44 277.71,50.5 281.71,47.83 C285.71,45.15 285.71,53.15 281.71,51.83 C277.71,50.5 280.16,56 280,60 C279.84,64 281.7,70.52 277.7,68.15 C273.7,65.77 273.7,73.77 277.7,72.15 C281.7,70.52 279.83,76 280,80 C280.17,84 281.54,90.38 277.54,87.97 C273.54,85.56 273.54,93.56 277.54,91.97 C281.54,90.38 280.02,96 280,100 C279.98,104 277.37,110.72 281.37,108.1 C285.37,105.47 285.37,113.47 281.37,112.1 C277.37,110.72 279.64,116 280,120 C280.36,124 282.23,129.12 278.23,127.45 C274.23,125.79 274.23,133.79 278.23,131.45 C282.23,129.12 279.44,136 280,140 C280.56,144 282.56,151.27 278.56,148.62 C274.56,145.98 274.56,153.98 278.56,152.62 C282.56,151.27 279.38,156 280,160 C280.62,164 277.41,170.3 281.41,168.23 C285.41,166.16 285.41,174.16 281.41,172.23 C277.41,170.3 280.36,176 280,180 C279.64,184 281.37,191.49 277.37,188.77 C273.37,186.05 273.37,194.05 277.37,192.77 C281.37,191.49 280.14,196 280,200 M0,0 L300,0 L300,200 L0,200 L0,0 "></path></svg>